<svg width="50" height="50" viewBox="0 0 50 50" fill="none" xmlns="http://www.w3.org/2000/svg">
<path d="M33.9805 22.644C33.9805 27.6035 29.96 31.624 25.0005 31.624C20.041 31.624 16.0205 27.6035 16.0205 22.644C16.0205 21.2465 16.349 19.929 16.918 18.75H7V39.75C7 41.675 8.575 43.25 10.5 43.25H39.5C41.425 43.25 43 41.675 43 39.75V18.75H33.0825C33.6723 19.9634 33.9794 21.2948 33.9805 22.644Z" fill="#F2F1F1"/>
<path d="M39.5 6.75H10.5C8.575 6.75 7 8.325 7 10.25V17.25H17.8325C19.4715 15.0755 22.0675 13.664 25 13.664C27.9325 13.664 30.5285 15.0755 32.1675 17.25H43V10.25C43 8.325 41.425 6.75 39.5 6.75ZM9.878 15.608H8.575V10.5605C8.57496 10.1416 8.69865 9.73199 8.93055 9.38311C9.16245 9.03424 9.49223 8.76163 9.8785 8.5995V15.608H9.878ZM12.013 15.608H10.7785V8.434H12.013V15.608ZM14.1475 15.608H12.913V8.434H14.1475V15.608ZM16.2805 10.5605V15.608H15.0475V8.434H16.2805V10.5605ZM41.1755 13.4815C41.1756 13.7607 41.1206 14.0372 41.0139 14.2951C40.9071 14.5531 40.7505 14.7875 40.5532 14.985C40.3558 15.1824 40.1215 15.3391 39.8635 15.446C39.6056 15.5529 39.3292 15.6079 39.05 15.608H35.5955C35.3163 15.608 35.0398 15.553 34.7818 15.4461C34.5238 15.3392 34.2894 15.1826 34.092 14.9851C33.8946 14.7877 33.738 14.5532 33.6312 14.2952C33.5244 14.0372 33.4694 13.7607 33.4695 13.4815V10.5605C33.4694 10.2813 33.5244 10.0048 33.6312 9.74676C33.738 9.48877 33.8946 9.25434 34.092 9.05687C34.2894 8.8594 34.5238 8.70275 34.7818 8.59588C35.0398 8.48901 35.3163 8.434 35.5955 8.434H39.05C39.3292 8.434 39.6057 8.48901 39.8636 8.59589C40.1216 8.70277 40.3559 8.85942 40.5533 9.0569C40.7507 9.25437 40.9072 9.48881 41.014 9.7468C41.1208 10.0048 41.1756 10.2813 41.1755 10.5605V13.4815Z" fill="#F2F1F1"/>
<path d="M25.0005 30.5739C29.3685 30.5739 32.9095 27.0314 32.9095 22.6644C32.9095 18.2969 29.369 14.7544 25.0005 14.7544C20.6315 14.7544 17.0905 18.2969 17.0905 22.6644C17.0905 27.0309 20.6315 30.5739 25.0005 30.5739ZM25 16.3624C28.48 16.3624 31.302 19.1839 31.302 22.6644C31.302 26.1444 28.4805 28.9664 25 28.9664C21.5195 28.9664 18.698 26.1449 18.698 22.6644C18.6985 19.1834 21.52 16.3624 25 16.3624Z" fill="#F2F1F1"/>
</svg>
