<svg width="17" height="16" viewBox="0 0 17 16" fill="none" xmlns="http://www.w3.org/2000/svg">
<path d="M15.8 3.69988C13.4 -0.000122309 8.49999 -1.10012 4.69999 1.19988C0.999993 3.49988 -0.200007 8.49988 2.19999 12.1999L2.39999 12.4999L1.59999 15.4999L4.59999 14.6999L4.89999 14.8999C6.19999 15.5999 7.59999 15.9999 8.99999 15.9999C10.5 15.9999 12 15.5999 13.3 14.7999C17 12.3999 18.1 7.49988 15.8 3.69988ZM13.7 11.3999C13.3 11.9999 12.8 12.3999 12.1 12.4999C11.7 12.4999 11.2 12.6999 9.19999 11.8999C7.49999 11.0999 6.09999 9.79988 5.09999 8.29988C4.49999 7.59988 4.19999 6.69988 4.09999 5.79988C4.09999 4.99988 4.39999 4.29988 4.89999 3.79988C5.09999 3.59988 5.29999 3.49988 5.49999 3.49988H5.99999C6.19999 3.49988 6.39999 3.49988 6.49999 3.89988C6.69999 4.39988 7.19999 5.59988 7.19999 5.69988C7.29999 5.79988 7.29999 5.99988 7.19999 6.09988C7.29999 6.29988 7.19999 6.49988 7.09999 6.59988C6.99999 6.69988 6.89999 6.89988 6.79999 6.99988C6.59999 7.09988 6.49999 7.29988 6.59999 7.49988C6.99999 8.09988 7.49999 8.69988 7.99999 9.19988C8.59999 9.69988 9.19999 10.0999 9.89999 10.3999C10.1 10.4999 10.3 10.4999 10.4 10.2999C10.5 10.0999 11 9.59988 11.2 9.39988C11.4 9.19988 11.5 9.19988 11.7 9.29988L13.3 10.0999C13.5 10.1999 13.7 10.2999 13.8 10.3999C13.9 10.6999 13.9 11.0999 13.7 11.3999Z" fill="#F2F1F1"/>
</svg>
