<svg width="50" height="50" viewBox="0 0 50 50" fill="none" xmlns="http://www.w3.org/2000/svg">
<path d="M40.3335 7H9.6575C8.1905 7 7 8.1625 7 9.594V40.4025C7 41.836 8.1905 43 9.6575 43H40.3335C41.8015 43 43 41.836 43 40.4025V9.594C43 8.1625 41.8015 7 40.3335 7ZM17.677 37.677H12.335V20.4975H17.677V37.677ZM15.006 18.1485C14.5994 18.1485 14.1968 18.0684 13.8211 17.9127C13.4455 17.7571 13.1042 17.5289 12.8168 17.2413C12.5294 16.9537 12.3014 16.6123 12.146 16.2365C11.9906 15.8608 11.9107 15.4581 11.911 15.0515C11.911 14.2307 12.2371 13.4436 12.8174 12.8632C13.3978 12.2828 14.185 11.9567 15.0057 11.9567C15.8265 11.9567 16.6137 12.2828 17.1941 12.8632C17.7744 13.4436 18.1005 14.2307 18.1005 15.0515C18.1005 15.8724 17.7746 16.6598 17.1943 17.2405C16.614 17.8213 15.8269 18.1478 15.006 18.1485ZM37.675 37.677H32.3415V29.323C32.3415 27.33 32.3025 24.7675 29.566 24.7675C26.787 24.7675 26.3635 26.938 26.3635 29.1785V37.6775H21.026V20.4975H26.1485V22.8435H26.2215C26.9345 21.4935 28.6765 20.069 31.2745 20.069C36.6775 20.069 37.6755 23.626 37.6755 28.2535V37.677H37.675Z" fill="#F2F1F1"/>
</svg>
